<svg id="Camada_1" data-name="Camada 1" xmlns="http://www.w3.org/2000/svg" xmlns:xlink="http://www.w3.org/1999/xlink" viewBox="0 0 1944.45 1206.75"><defs><style>.cls-1{fill:none;}.cls-2{fill:#fff;}.cls-3{clip-path:url(#clip-path);}</style><clipPath id="clip-path" transform="translate(2.34 67.85)"><rect class="cls-1" x="1014.23" width="908.12" height="1078.31"/></clipPath></defs><g id="logo_frontal_br" data-name="logo frontal br"><path class="cls-2" d="M905.83,20V1080h-7.44L72.1,265.63h-6v796.5H-2.34V2.11H5.1L831.39,816.48h6V20Z" transform="translate(2.34 67.85)"/><g class="cls-3"><path class="cls-2" d="M1089.59,266.54c-10.78,0-28.85-20.75-61.42-62.7-6.73-8.67-12.55-16.16-15.05-18.7-27.11-27.44-56.73-89.66-58-92.3a4.18,4.18,0,0,1,7.56-3.58c.3.63,30.25,63.57,56.36,90,2.85,2.89,8.52,10.2,15.71,19.45,12.65,16.31,46.17,59.47,54.6,59.47h.14c.24-.06.57-.39.91-.95,3.49-5.79,5.55-29.87-19.81-126.21C1054.49,69.76,1058.07.46,1058.11-.23a4.09,4.09,0,0,1,4.4-3.95,4.18,4.18,0,0,1,4,4.41c0,.68-3.54,68.7,12.25,128.65,26.93,102.32,23.68,124.72,18.89,132.67a9.82,9.82,0,0,1-6.26,4.79A7.69,7.69,0,0,1,1089.59,266.54Z" transform="translate(2.34 67.85)"/><path class="cls-2" d="M1137.94-1.76c12.07,45.55,23.5,91.16,33.52,137.3,2.48,11.55,4.88,23.12,7,34.83s4.17,23.59,4.44,36.09a632.07,632.07,0,0,0,6.09,69.26c3.4,22.93,8.09,45.46,15.68,67.13l22.89,66.67,22.58,66.87c7.38,22.37,14.75,44.71,21.29,67.55,6.4,23.31,10.46,46.66,14.22,70s7,46.61,10.37,69.87c6.63,46.52,13.4,93,21.77,139s18.59,92,28.22,137.9l14.17,69,6.77,34.58c2.2,11.46,4.45,23.24,7,34.28l.08.32a2.08,2.08,0,0,1-4,1.2c-4.37-11.43-7.34-22.6-10.75-33.95s-6.35-22.68-9.4-34q-9-34.14-17-68.51c-10.58-45.85-20.47-91.8-29.42-138.15-8.68-46.38-15.74-93-22.63-139.46-3.46-23.24-6.88-46.47-10.7-69.54s-8-46.07-14.2-68.07c-13.27-44.66-28.56-89.21-43.64-133.65L1189.44,348c-7.93-22.75-12.84-46.45-16.3-70a595.08,595.08,0,0,1-6-71.15c-.13-11-2.05-22.35-4-33.83s-4.26-22.91-6.64-34.35c-9.66-45.78-20.73-91.47-32.09-137V1.71a7,7,0,0,1,5.07-8.45A7,7,0,0,1,1137.94-1.76Z" transform="translate(2.34 67.85)"/><path class="cls-2" d="M980.29,269.31a315,315,0,0,1,35.48,25.63c11.25,9.21,22,19,32.25,29.27a491.08,491.08,0,0,1,55.92,66.64,540,540,0,0,1,44,75.07,556.15,556.15,0,0,1,31.19,81.17c15.44,55.66,30.69,111.16,45,167,14.05,55.88,28.44,111.85,36.28,169.15a1.05,1.05,0,0,1-.9,1.18,1,1,0,0,1-1.16-.83v0c-5.67-28.19-12.55-56.14-19.57-84.05-6.85-27.95-14.28-55.77-21.48-83.65-14.54-55.69-30-111.27-45.64-166.57a576.89,576.89,0,0,0-31-79.94,531.41,531.41,0,0,0-43.23-74,515,515,0,0,0-54.78-65.84c-10.06-10.15-20.53-19.9-31.52-29a309,309,0,0,0-34.32-25.22l-.15-.09a3.48,3.48,0,0,1,3.64-5.94Z" transform="translate(2.34 67.85)"/><path class="cls-2" d="M971.26,358.68c24.26,25.23,45.08,53.07,64.11,82.13a634.86,634.86,0,0,1,49.25,91.67q10.37,23.89,18.59,48.65c5.43,16.5,10.13,33.17,14.82,49.83q13.89,50,26.74,100.29c17.16,67,33.58,134.26,47.92,202,7.2,33.85,13.93,67.81,19.19,102,1.46,8.54,2.53,17.14,3.6,25.74l3.12,25.74c1.1,8.55,2.36,17.08,4,25.5s3.84,16.72,7.53,24.32a1.63,1.63,0,0,1-2.93,1.42c-3.89-8-6.08-16.57-7.85-25.08s-3-17.12-4.15-25.72l-3.2-25.75c-1.09-8.56-2.17-17.11-3.65-25.62-5.35-34.12-12.16-68-19.44-101.8-14.51-67.59-31.11-134.73-48.44-201.67q-13-50.19-27-100.13c-4.72-16.62-9.46-33.24-14.89-49.57s-11.68-32.4-18.57-48.18a629,629,0,0,0-49.12-90.78c-18.89-28.71-39.81-56.45-63.59-81l-.1-.11a2.79,2.79,0,0,1,4-3.88Z" transform="translate(2.34 67.85)"/><path class="cls-2" d="M1443,954.57a16.57,16.57,0,0,1-2.7-.22c-37.35-5.88-52.55-126.44-58.72-226.55-3.44-55.79-23.68-162-35.43-220.39l-2.58-12.81C1303.18,294.2,1253,44.79,1213.48,4.9a7,7,0,0,1,0-9.86,7,7,0,0,1,9.86.06c42.4,42.84,91,284,133.82,496.75l2.58,12.81c11.82,58.71,32.19,165.65,35.68,222.29,12.69,205.89,45.57,213.41,47,213.63,2.94.55,5.94-3.63,7.6-7.88,17.19-43.82,34.63-117.78,53.09-196.09,23.91-101.42,51-216.38,83.94-292.62,33.32-77.14,69.49-137.84,111.38-208.12,15.33-25.72,31.19-52.32,48.23-81.9C1808.78,46.19,1807.39.83,1807.37.38A7,7,0,0,1,1814-6.94a7,7,0,0,1,7.34,6.5c.12,2,2.27,48.92-62.53,161.38-17.09,29.66-33,56.3-48.33,82.07-41.64,69.86-77.6,130.2-110.56,206.51-32.43,75.11-59.39,189.43-83.17,290.29-18.58,78.8-36.13,153.24-53.68,198C1458.88,948.37,1451.36,954.57,1443,954.57Z" transform="translate(2.34 67.85)"/><path class="cls-2" d="M1691.78-57.71c-31.12,28.34-62,57-92.36,86.17-15.24,14.53-30.32,29.22-45.08,44.19-7.4,7.47-14.73,15-21.86,22.65-3.63,3.83-6.93,7.7-10.47,11.67s-7.15,8-11,11.76c-7.8,7.39-16.83,14.43-28,17.49a41.53,41.53,0,0,1-17.07,1,50.28,50.28,0,0,1-8.25-1.94c-1.34-.48-2.61-.87-4-1.44a23.41,23.41,0,0,1-4.07-2.2c-5.06-3.44-8.54-8.12-11.45-12.83a102.49,102.49,0,0,1-7.21-14.7A278.43,278.43,0,0,1,1421,73.63c-11.11-40.85-18.9-82.46-34-121.18v0a5.81,5.81,0,0,1,3.3-7.53,5.82,5.82,0,0,1,7.53,3.31,2.65,2.65,0,0,1,.11.3c13.34,40.77,20,82.58,30.39,123.16a272.08,272.08,0,0,0,9.34,29.71,95.07,95.07,0,0,0,6.56,13.71c2.55,4.24,5.57,8.18,9.26,10.71a17.39,17.39,0,0,0,2.85,1.58c1,.43,2.3.82,3.43,1.24a39.53,39.53,0,0,0,7.1,1.67,34.27,34.27,0,0,0,14.22-.86c9.31-2.54,17.55-8.81,24.89-15.86,3.68-3.56,7.18-7.35,10.54-11.29s7-8.08,10.57-11.92c7.17-7.81,14.5-15.41,21.88-23,14.79-15.07,29.72-29.95,44.65-44.85l90.18-88.72a5.8,5.8,0,0,1,8.21.07,5.8,5.8,0,0,1-.06,8.22l-.15.14Z" transform="translate(2.34 67.85)"/><path class="cls-2" d="M1918.85,2.64q-56.73,135.69-117.09,269.7C1781.55,317,1761,361.5,1739.68,405.63s-43.18,88.07-67,131c-23.46,42.6-41.8,88-57.8,134.14s-29.41,93.22-41.35,140.64c-23.77,94.88-41.8,191.23-55.28,288.17a1.86,1.86,0,0,1-3.69-.5c12.76-97.17,30.07-193.79,53.17-289.11,11.62-47.64,24.78-94.94,40.44-141.49s33.83-92.38,57.31-135.82c23.29-42.92,44.61-87,65.5-131.19s40.94-88.88,60.68-133.66q59.19-134.32,114.3-270.46l0,0A7,7,0,0,1,1915-6.51a7,7,0,0,1,3.84,9.08Z" transform="translate(2.34 67.85)"/><path class="cls-2" d="M1642.64,1095.55c5.72-82.58,12.11-165.1,19.94-247.52,4-41.2,8.21-82.39,14.29-123.41,1.62-10.25,3.27-20.49,5.58-30.69,2.5-10.26,5.61-20,8.47-30,5.87-19.86,12.13-39.63,19-59.18,13.89-39.07,30.13-77.42,50.14-113.82a606.09,606.09,0,0,1,32.46-53.16c5.79-8.66,11.51-17.1,17.06-25.8,5.32-8.82,10.77-17.56,15.67-26.64,20.19-36,37.38-73.6,53.26-111.71,7.85-19.11,15.41-38.33,22.48-57.73s14-39,19.42-58.65l0-.11a2.79,2.79,0,1,1,5.37,1.49h0c-5.66,20.19-12.64,39.61-19.7,59.13s-14.77,38.74-22.68,57.89c-16,38.23-33.37,76-53.77,112.16-5,9.12-10.46,17.93-15.85,26.81-5.59,8.73-11.49,17.42-17.23,25.93a600.94,600.94,0,0,0-32.33,52.67c-20,36.09-36.19,74.17-50.11,113-6.94,19.44-13.21,39.12-19.12,58.93-2.86,9.87-6.06,19.88-8.48,29.71-2.29,10-4,20.18-5.59,30.36-6.16,40.83-10.43,82-14.56,123.15-8,82.34-14.63,164.85-20.54,247.37a1.63,1.63,0,1,1-3.25-.22Z" transform="translate(2.34 67.85)"/><path class="cls-2" d="M1823.84,1097.82l-3-10c-1-3.33-1.31-6.54-2-9.81-1.37-6.53-2-13-2.84-19.48-1.5-13-2.54-25.87-3.3-38.78-1.57-25.83-2.43-51.63-2.88-77.42-1-51.58-.67-103.13-.17-154.64.21-25.67.43-51.61,1.82-77.4s3.73-51.56,7.08-77.2,7.9-51.11,13.78-76.32c3-12.58,6.24-25.12,10.2-37.48s8-24.62,15-36.4a2.78,2.78,0,0,1,4.8,2.82l-.17.29c-6.09,10.47-10.14,23-13.92,35.06s-6.87,24.64-9.71,37.13c-5.57,25-9.73,50.35-12.91,75.8s-5.05,51.06-6.29,76.69-1.09,51.23-1,77c0,51.49.18,103,1.68,154.35.69,25.7,1.81,51.38,3.61,76.94.88,12.78,2,25.53,3.62,38.14.87,6.28,1.56,12.64,2.91,18.7.66,3,1.05,6.25,1.92,9.09l2.59,8.53.3,1a5.79,5.79,0,0,1-11.08,3.36Z" transform="translate(2.34 67.85)"/><path class="cls-2" d="M1920.1,1086.67c-12.35-48.15-19.91-97.25-23.78-146.74-3.56-49.48-4.07-99-3.7-148.52q.36-37.14,1.71-74.26c.5-12.39,1-24.74,1.93-37.21s2.47-24.84,4.27-37.15c7.31-49.23,18-97.61,30.13-145.77a5.81,5.81,0,0,1,11.27,2.85v.05l0,.09c-12.42,47.57-23.43,95.8-31,144.31q-2.82,18.21-4.5,36.46c-1,12.17-1.74,24.5-2.39,36.8q-1.87,36.95-2.66,74c-1,49.33-1.14,98.74,1.74,147.92,3.13,49.09,10,98.19,21.52,146l0,.09a2.32,2.32,0,0,1-4.51,1.13Z" transform="translate(2.34 67.85)"/><path class="cls-2" d="M1715.93,1095.56q4.38-104.68,10.94-209.26c2.3-34.85,4.63-69.7,7.59-104.52s6-69.64,10.67-104.37l1.71-13,2.12-13c.74-4.33,1.35-8.67,2.2-13l2.92-13a494.1,494.1,0,0,1,15.6-50.38c11.83-33.15,27.54-64.8,44.65-95.36s35.53-60.32,53.75-90.1l54.53-89.39,0,0a5.11,5.11,0,1,1,8.73,5.32l0,0-55.16,89.09c-18.42,29.65-36.9,59.24-54.17,89.43s-32.83,61.25-44.7,93.82a488,488,0,0,0-15.7,49.52l-2.91,12.54c-.86,4.22-1.49,8.53-2.24,12.8l-2.19,12.82-1.78,12.93c-4.82,34.46-8.19,69.2-11.33,103.94s-5.74,69.54-8.27,104.35q-7.31,104.44-12.33,209a2.32,2.32,0,1,1-4.64-.2Z" transform="translate(2.34 67.85)"/><path class="cls-2" d="M1437.37,491.44a28.48,28.48,0,0,1-5.9-.61c-18.1-3.81-32.73-24.69-43.47-62.07-9.86-34.29-23.55-102.17-38-174-17.5-86.79-35.59-176.53-45.26-196.68a289.07,289.07,0,0,0-34-53.56,7,7,0,0,1,.87-9.81,7,7,0,0,1,9.82.86A297.53,297.53,0,0,1,1317.27,52c10.42,21.72,27.88,108.3,46.36,200,13.8,68.43,28.07,139.2,37.76,173,8.95,31.12,20.65,49.69,32.95,52.27,10.59,2.28,20.25-7.73,23.91-12.12,14-16.78,71.52-119.46,90.1-166,15.34-38.45,56.34-95.23,96-150.14,9.15-12.66,18.17-25.16,26.72-37.22,43.39-61.19,50.6-112.1,50.67-112.6a7,7,0,0,1,7.82-6,7,7,0,0,1,6,7.81c-.29,2.2-7.58,54.63-53.11,118.85-8.57,12.1-17.63,24.63-26.79,37.32-39.15,54.23-79.63,110.3-94.34,147.14C1543.13,349.74,1485.2,454.5,1469,474,1459.53,485.3,1448.29,491.44,1437.37,491.44Z" transform="translate(2.34 67.85)"/><path class="cls-2" d="M1012.56,472.17c7.51,50.49,15.78,100.93,24.06,151.34s17.22,100.71,26.79,150.88c4.79,25.09,9.7,50.15,15,75.13s10.08,50.3,13.68,75.63,6.38,50.86,8.15,76.44c.85,12.79,1.41,25.6,1.44,38.44s-.4,25.71-2.46,38.5a1.39,1.39,0,0,1-2.76-.38v-.06c2.94-25.14.68-50.78-1.15-76.13-2.22-25.38-5.47-50.69-9.49-75.85-2.1-12.57-4.26-25.13-6.81-37.6s-5.34-24.88-8-37.42c-5.45-25-10.53-50.07-15.49-75.16Q1026,625.32,1003.36,473.51a4.65,4.65,0,1,1,9.2-1.34Z" transform="translate(2.34 67.85)"/><path class="cls-2" d="M1032.74,1105.44c-15-61.79-31.81-249-32.52-257l8.33-.74c.17,1.93,17.46,194.54,32.32,255.71Z" transform="translate(2.34 67.85)"/></g></g></svg>