<svg id="Layer_1" data-name="Layer 1" xmlns="http://www.w3.org/2000/svg" viewBox="0 0 793.53 800"><defs><style>.cls-1{fill:#fff;}</style></defs><path class="cls-1" d="M380.6.46C169.32,10.52,2.59,186.48,3.24,398A394.85,394.85,0,0,0,46.42,577L4.3,781.43A15.43,15.43,0,0,0,23,799.57L223.34,752.1a394.91,394.91,0,0,0,170.49,41.39c216,3.3,396-168.17,402.74-384C803.78,178.06,612.81-10.6,380.6.46Zm239.08,616A310.89,310.89,0,0,1,261.73,675l-27.9-13.9L111,690.24l25.85-125.52L123.1,537.8a310.94,310.94,0,0,1,57.22-360.71A310.67,310.67,0,0,1,619.68,616.45Z" transform="translate(-3.23 0)"/><path class="cls-1" d="M592.56,482.81l-76.85-22.07a28.65,28.65,0,0,0-28.35,7.47l-18.8,19.15a28,28,0,0,1-30.43,6.42c-36.36-14.71-112.84-82.71-132.37-116.72A28,28,0,0,1,308,346l16.41-21.22a28.64,28.64,0,0,0,3.53-29.1l-32.33-73.14a28.66,28.66,0,0,0-44.75-10.24c-21.45,18.14-46.9,45.71-50,76.25-5.45,53.85,17.64,121.72,105,203.23C406.69,586,487.48,598.41,540.08,585.67c29.84-7.23,53.68-36.2,68.73-59.92A28.66,28.66,0,0,0,592.56,482.81Z" transform="translate(-3.23 0)"/></svg>