<svg id="Layer_1" data-name="Layer 1" xmlns="http://www.w3.org/2000/svg" viewBox="0 0 799.99 800"><defs><style>.cls-1{fill:#fff;}</style></defs><path class="cls-1" d="M692.19,0H107.81A107.8,107.8,0,0,0,0,107.8V692.19A107.81,107.81,0,0,0,107.81,800H396l.49-285.88H322.24a17.52,17.52,0,0,1-17.52-17.46l-.35-92.15a17.52,17.52,0,0,1,17.52-17.59H396v-89c0-103.33,63.1-159.59,155.28-159.59H627a17.52,17.52,0,0,1,17.52,17.52v77.71A17.53,17.53,0,0,1,627,251l-46.42,0c-50.13,0-59.84,23.82-59.84,58.78v77.09H630.85a17.53,17.53,0,0,1,17.41,19.58l-10.93,92.15a17.52,17.52,0,0,1-17.4,15.46H521.2L520.7,800H692.2A107.8,107.8,0,0,0,800,692.2V107.8A107.8,107.8,0,0,0,692.19,0Z" transform="translate(0)"/></svg>