<svg id="Layer_1" data-name="Layer 1" xmlns="http://www.w3.org/2000/svg" viewBox="0 0 800 800"><defs><style>.cls-1{fill:#fff;}</style></defs><path class="cls-1" d="M561.68,0H238.32C106.91,0,0,106.91,0,238.32V561.68C0,693.09,106.91,800,238.32,800H561.68C693.09,800,800,693.09,800,561.68V238.32C800,106.91,693.09,0,561.68,0ZM719.52,561.68A157.84,157.84,0,0,1,561.68,719.52H238.32A157.84,157.84,0,0,1,80.48,561.68V238.32A157.84,157.84,0,0,1,238.32,80.48H561.68A157.84,157.84,0,0,1,719.52,238.32V561.68Z"/><path class="cls-1" d="M400,193.09c-114.09,0-206.91,92.82-206.91,206.91S285.91,606.91,400,606.91,606.91,514.09,606.91,400,514.09,193.09,400,193.09Zm0,333.34A126.43,126.43,0,1,1,526.43,400,126.42,126.42,0,0,1,400,526.43Z"/><circle class="cls-1" cx="607.3" cy="194.65" r="49.58"/></svg>